<?xml version="1.0" encoding="UTF-8"?>
<svg id="Layer_1" xmlns="http://www.w3.org/2000/svg" version="1.1" viewBox="0 0 364.9 128.4">
  <!-- Generator: Adobe Illustrator 29.3.1, SVG Export Plug-In . SVG Version: 2.1.0 Build 151)  -->
  <defs>
    <style>
      .st0 {
        isolation: isolate;
      }

      .st1 {
        fill: #006aa9;
      }

      .st2 {
        fill: #009cde;
      }
    </style>
  </defs>
  <g id="Livello_2">
    <g id="Livello_1-2">
      <path class="st2" d="M67.4,31.1c-8-8-15.5-15.5-17.7-23.9-2.2,8.6-9.8,16.1-17.7,23.9-11.6,11.8-25.1,25.3-25.1,45.5-.6,23.7,18.4,43.5,42,43.9,23.7.6,43.5-18.4,43.9-42v-1.8c0-20.2-13.5-33.7-25.3-45.5h0ZM28.8,80.5c-1.2,1.6-2.4,3.5-3.3,5.3,0,.2-.4.6-.8.6h-.4c-1,0-2-1.8-2-1.8h0c-.2-.4-.6-1-.8-1.4v-.4c-2.7-5.7-.4-13.9-.4-13.9h0c1-3.9,2.9-7.8,5.1-11,1.4-2,3.1-4.1,4.7-6.1l2,2,9.6,9.8c.4.4.4,1,0,1.4l-10,11.2h0l-3.7,4.1v.2ZM50.3,108.7c-8.2,0-14.9-6.7-14.7-14.9,0-3.7,1.4-7.1,3.7-9.8,3.1-3.7,6.9-7.3,11.2-12.2,4.9,5.3,8.2,8.8,11.2,12.9.2.2.4.6.6,1,1.6,2.4,2.7,5.3,2.7,8.4,0,8.2-6.5,14.7-14.7,14.7h0ZM78.2,85h0c0,.6-.8,1-1.4,1.2h-.2c-.6,0-1-.6-1.4-1h0c-2.7-3.9-5.5-7.5-8.8-10.8l-3.9-4.1-13.1-13.5c-2.7-2.4-5.3-5.3-7.8-8,0,0,0-.2-.2-.2-.4-.6-.8-1.2-1-2v-.4c-.4-2.2.4-4.5,2-6.1,2.4-2.4,5.1-5.1,7.5-7.8,2.7,2.9,5.5,5.7,8.4,8.6h0c5.7,5.3,10.8,11.2,15.5,17.5,3.9,5.5,5.9,11.8,5.9,18.6s-.4,5.7-1.4,8.4c0,0-.2-.4-.2-.4Z"/>
      <g>
        <path class="st2" d="M226.7,39.7h-10.2v19.1c0,5.5-2.4,10.2-8,10.2s-8-4.4-8-10.2v-19.1h-10.2v19.1c0,11.1,7.1,20,18.2,20s18.5-8.9,18.5-20v-19.1h-.3Z"/>
        <rect class="st2" x="319.4" y="28.2" width="10.2" height="50"/>
        <polygon class="st2" points="337.2 29.9 337.2 28.2 345 28.2 345 29.9 342.1 29.9 342.1 37.7 340.1 37.7 340.1 29.9 337.2 29.9"/>
        <polygon class="st2" points="349.2 28.2 351.4 34.8 351.4 34.8 353.7 28.2 356.8 28.2 356.8 38 354.8 38 354.8 30.8 354.6 30.8 352.3 38 350.6 38 348.3 31.1 348.1 31.1 348.1 38 346.1 38 346.1 28.2 349.2 28.2"/>
        <path class="st2" d="M181.8,39.3c-8.9-2-14.4,6.7-14.7,7.1,0,.2,0,.4-.4.4s-.4-.4-.4-.4l-1.1-6.7h-9.1v38.3h10.2v-20.7c0-1.8,4.4-9.8,13.3-7.8,2.4.4,4.4,1.6,6.4,2.9v-11.8c-1.3-.7-2.9-1.3-4.2-1.6"/>
        <path class="st2" d="M250.5,49.1c5.5,0,10.2,4.7,10.2,10.2s-4.7,10.2-10.2,10.2-10.2-4.7-10.2-10.2,4.7-10.2,10.2-10.2h0M240.5,90.6v-13.8h0v-5.1s0-.4.4-.4.4.2.4.4c2.4,5.8,8.7,8.7,14.4,6.9,10.7-3.1,17.1-14.2,14-24.9-3.1-10.7-14.2-17.1-24.9-14-8.7,2.4-14.7,10.4-14.7,19.6v31.4h10.2Z"/>
        <path class="st2" d="M305.2,59.3c0,5.5-4.7,10.2-10.2,10.2s-10.2-4.7-10.2-10.2,4.7-10.2,10.2-10.2h0c5.5,0,10.2,4.7,10.2,10.2M305,78.2h10.2v-18.9c0-11.1-9.1-20.2-20.2-20.2s-20.2,9.1-20.2,20.2,6,17.1,14.7,19.6c6,1.8,12.2-1.3,14.7-6.9,0,0,0-.4.4-.4s.4.4.4.4"/>
        <path class="st2" d="M126.6,36.6h-4.2v32.7h4.2c8.7,0,14.2-.7,14.2-16.2s-4.9-16.2-14.4-16.2M123.7,78h-11.8V27.9h12.4c15.1,0,26.7,2.9,26.7,24.9s-12.2,24.9-27.6,24.9"/>
      </g>
    </g>
  </g>
  <g class="st0">
    <path class="st1" d="M121.9,116.2h-10.6v-2.8l2.8-1.3v-15.1l-2.8-1.3v-2.8h10.6v2.8l-2.8,1.3v15.1l2.8,1.3v2.8Z"/>
    <path class="st1" d="M144.7,116.2h-5.7l-5.4-8.8-5.4,8.8h-5.3l7.7-12-7.2-11.3h5.4l5,8.4,4.9-8.4h5.3l-7.3,11.5,7.9,11.8h0Z"/>
    <path class="st1" d="M155.1,92.9c3,0,5.2.7,6.6,1.9,1.4,1.3,2.1,3.1,2.1,5.3s-.1,2-.4,2.9-.8,1.8-1.5,2.5-1.6,1.3-2.8,1.7-2.6.6-4.3.6h-2.1v8.3h-4.9v-23.3h7.4ZM154.8,96.9h-2.2v6.9h1.6c.9,0,1.7-.1,2.4-.4s1.2-.6,1.6-1.1c.4-.5.6-1.2.6-2s-.3-2-.9-2.6c-.6-.6-1.6-.8-3-.8h0Z"/>
    <path class="st1" d="M184.1,92.9c3,0,5.2.7,6.6,1.9,1.4,1.3,2.1,3.1,2.1,5.3s-.1,2-.4,2.9-.8,1.8-1.5,2.5-1.6,1.3-2.8,1.7-2.6.6-4.3.6h-2.1v8.3h-4.9v-23.3h7.4ZM183.8,96.9h-2.2v6.9h1.6c.9,0,1.7-.1,2.4-.4s1.2-.6,1.6-1.1c.4-.5.6-1.2.6-2s-.3-2-.9-2.6c-.6-.6-1.6-.8-3-.8h0Z"/>
    <path class="st1" d="M206.7,98.1c.2,0,.5,0,.9,0s.6,0,.8.1l-.4,4.6c-.1,0-.4,0-.7-.1-.3,0-.6,0-.8,0-.6,0-1.2,0-1.8.2s-1.1.4-1.6.8-.8.8-1.1,1.4-.4,1.3-.4,2.1v9.1h-4.9v-17.8h3.7l.7,3h.2c.3-.6.8-1.2,1.3-1.7s1.1-.9,1.8-1.2,1.4-.4,2.2-.4h0Z"/>
    <path class="st1" d="M227.1,107.3c0,1.5-.2,2.8-.6,4-.4,1.2-1,2.1-1.7,2.9-.8.8-1.7,1.4-2.7,1.8-1.1.4-2.3.6-3.6.6s-2.4-.2-3.4-.6c-1.1-.4-2-1-2.7-1.8-.8-.8-1.3-1.8-1.8-2.9s-.6-2.5-.6-4,.3-3.7,1-5,1.7-2.4,3-3.1,2.9-1.1,4.6-1.1,3.2.4,4.4,1.1,2.3,1.8,3,3.1,1.1,3,1.1,5h0ZM214.8,107.3c0,1.2.1,2.2.4,3s.7,1.4,1.2,1.8,1.2.6,2.1.6,1.6-.2,2.1-.6.9-1,1.2-1.8c.2-.8.4-1.8.4-3s-.1-2.2-.4-2.9-.7-1.4-1.2-1.8c-.6-.4-1.2-.6-2.1-.6-1.3,0-2.2.4-2.8,1.3-.6.9-.9,2.2-.9,4Z"/>
    <path class="st1" d="M236.9,98.1c1.1,0,2.1.2,2.9.7s1.6,1.1,2.2,2h.1l.4-2.3h4.1v17.9c0,1.7-.3,3.1-1,4.3s-1.7,2-3,2.6c-1.3.6-3,.9-4.9.9s-2.4,0-3.5-.2-2.1-.4-3.1-.8v-3.9c1.1.4,2.2.8,3.4,1,1.2.2,2.3.3,3.6.3s2.2-.3,2.8-1c.6-.7.9-1.7.9-3v-.4c0-.4,0-.8,0-1.1,0-.4,0-.7,0-1h-.1c-.6.9-1.3,1.6-2.2,2-.9.4-1.8.6-2.9.6-2.1,0-3.8-.8-4.9-2.4-1.2-1.6-1.8-3.9-1.8-6.8s.6-5.2,1.8-6.8,2.9-2.4,5-2.4h0ZM238.4,102c-.8,0-1.4.2-1.9.6s-.9,1-1.1,1.8c-.2.8-.4,1.8-.4,3,0,1.8.3,3.1.9,4s1.4,1.3,2.7,1.3,1.2,0,1.6-.2c.4-.2.8-.4,1.1-.8.3-.4.5-.9.7-1.5.1-.6.2-1.3.2-2.2v-.6c0-1.3-.1-2.3-.4-3.1-.3-.8-.7-1.3-1.2-1.7-.6-.4-1.2-.5-2.1-.5h0Z"/>
    <path class="st1" d="M261.7,98.1c.2,0,.5,0,.9,0s.6,0,.8.1l-.4,4.6c-.2,0-.4,0-.7-.1-.3,0-.6,0-.8,0-.6,0-1.2,0-1.8.2s-1.1.4-1.6.8-.8.8-1.1,1.4-.4,1.3-.4,2.1v9.1h-4.9v-17.8h3.7l.7,3h.2c.3-.6.8-1.2,1.3-1.7s1.1-.9,1.8-1.2,1.4-.4,2.2-.4h0Z"/>
    <path class="st1" d="M273.3,98c2.4,0,4.2.5,5.5,1.6,1.3,1,1.9,2.6,1.9,4.8v11.9h-3.4l-.9-2.4h-.1c-.5.6-1,1.2-1.6,1.6s-1.1.7-1.8.9-1.5.3-2.5.3-2-.2-2.8-.6c-.8-.4-1.5-1-2-1.9-.5-.8-.7-1.9-.7-3.2,0-1.9.7-3.3,2-4.2s3.3-1.4,6-1.5h3.1v-.9c0-.9-.2-1.6-.7-2.1-.5-.4-1.2-.7-2-.7s-1.7.1-2.6.4-1.7.6-2.5.9l-1.6-3.3c1-.5,2-.9,3.2-1.2,1.2-.3,2.4-.4,3.6-.4h0ZM273.9,108c-1.6,0-2.7.3-3.3.9s-.9,1.2-.9,2.1.2,1.3.7,1.6,1,.5,1.7.5c1,0,1.9-.3,2.7-.9.7-.6,1.1-1.5,1.1-2.6v-1.5h-1.9q0,0,0,0Z"/>
    <path class="st1" d="M306.6,98.1c2,0,3.5.5,4.6,1.6s1.6,2.7,1.6,5v11.6h-4.9v-10.4c0-1.3-.2-2.2-.7-2.9s-1.1-1-2-1-2.2.4-2.7,1.4c-.6.9-.8,2.2-.8,4v8.9h-4.9v-10.4c0-.9-.1-1.6-.3-2.1s-.5-1-.9-1.3c-.4-.3-.9-.4-1.5-.4s-1.6.2-2.1.7c-.5.4-.9,1.1-1.1,2-.2.9-.3,1.9-.3,3.2v8.4h-4.9v-17.8h3.7l.7,2.3h.3c.4-.6.8-1.1,1.4-1.5s1.1-.7,1.8-.9c.7-.2,1.3-.3,2-.3,1.3,0,2.4.2,3.3.6.9.4,1.6,1.1,2.1,2h.4c.6-.9,1.3-1.6,2.3-2,1-.4,2-.6,3-.6h0Z"/>
  </g>
</svg>